<svg width="22" height="24" viewBox="0 0 22 24" fill="none" xmlns="http://www.w3.org/2000/svg">
<path d="M13.2 3.27273C13.2 2.67023 12.7075 2.18182 12.1 2.18182H6.6V1.09091C6.6 0.801582 6.48411 0.524105 6.27782 0.31952C6.07153 0.114935 5.79174 0 5.5 0C5.20826 0 4.92847 0.114935 4.72218 0.31952C4.51589 0.524105 4.4 0.801582 4.4 1.09091V2.18182H3.3C2.42479 2.18182 1.58542 2.52662 0.966548 3.14038C0.347678 3.75413 0 4.58656 0 5.45455V20.7273C0 21.5953 0.347678 22.4277 0.966548 23.0414C1.58542 23.6552 2.42479 24 3.3 24H18.7C19.5752 24 20.4146 23.6552 21.0335 23.0414C21.6523 22.4277 22 21.5953 22 20.7273V12C22 11.3975 21.5075 10.9091 20.9 10.9091C20.2925 10.9091 19.8 11.3975 19.8 12V20.7273C19.8 21.0166 19.6841 21.2941 19.4778 21.4987C19.2715 21.7032 18.9917 21.8182 18.7 21.8182H3.3C3.00826 21.8182 2.72847 21.7032 2.52218 21.4987C2.31589 21.2941 2.2 21.0166 2.2 20.7273V10.9091H12.1C12.7075 10.9091 13.2 10.4207 13.2 9.81818C13.2 9.21569 12.7075 8.72727 12.1 8.72727H2.2V5.45455C2.2 5.16522 2.31589 4.88774 2.52218 4.68316C2.72847 4.47857 3.00826 4.36364 3.3 4.36364H4.4V5.45455C4.4 5.74387 4.51589 6.02135 4.72218 6.22593C4.92847 6.43052 5.20826 6.54545 5.5 6.54545C5.79174 6.54545 6.07153 6.43052 6.27782 6.22593C6.48411 6.02135 6.6 5.74387 6.6 5.45455V4.36364H12.1C12.7075 4.36364 13.2 3.87522 13.2 3.27273Z" fill="#0E0000"/>
<path d="M11.6111 19.4525C11.4302 19.5724 11.2176 19.6364 11 19.6364C10.7083 19.6364 10.4285 19.5214 10.2222 19.3168C10.0159 19.1123 9.9 18.8348 9.9 18.5455C9.9 18.3297 9.96451 18.1188 10.0854 17.9394C10.2063 17.76 10.378 17.6202 10.579 17.5376C10.78 17.455 11.0012 17.4334 11.2146 17.4755C11.428 17.5176 11.624 17.6215 11.7778 17.7741C11.9317 17.9266 12.0364 18.121 12.0789 18.3326C12.1213 18.5442 12.0995 18.7636 12.0163 18.9629C11.933 19.1623 11.792 19.3326 11.6111 19.4525Z" fill="#0E0000"/>
<path d="M17.1111 19.4525C16.9302 19.5724 16.7176 19.6364 16.5 19.6364C16.2083 19.6364 15.9285 19.5214 15.7222 19.3168C15.5159 19.1123 15.4 18.8348 15.4 18.5455C15.4 18.3297 15.4645 18.1188 15.5854 17.9394C15.7063 17.76 15.8781 17.6202 16.0791 17.5376C16.28 17.455 16.5012 17.4334 16.7146 17.4755C16.928 17.5176 17.124 17.6215 17.2778 17.7741C17.4317 17.9266 17.5364 18.121 17.5789 18.3326C17.6213 18.5442 17.5995 18.7636 17.5163 18.9629C17.433 19.1623 17.292 19.3326 17.1111 19.4525Z" fill="#0E0000"/>
<path d="M17.1111 15.0889C16.9302 15.2087 16.7176 15.2727 16.5 15.2727C16.2083 15.2727 15.9285 15.1578 15.7222 14.9532C15.5159 14.7486 15.4 14.4711 15.4 14.1818C15.4 13.9661 15.4645 13.7551 15.5854 13.5757C15.7063 13.3963 15.8781 13.2565 16.0791 13.174C16.28 13.0914 16.5012 13.0698 16.7146 13.1119C16.928 13.154 17.124 13.2579 17.2778 13.4104C17.4317 13.563 17.5364 13.7574 17.5789 13.969C17.6213 14.1806 17.5995 14.4 17.5163 14.5993C17.433 14.7986 17.292 14.969 17.1111 15.0889Z" fill="#0E0000"/>
<path d="M11.6111 15.0889C11.4302 15.2087 11.2176 15.2727 11 15.2727C10.7083 15.2727 10.4285 15.1578 10.2222 14.9532C10.0159 14.7486 9.9 14.4711 9.9 14.1818C9.9 13.9661 9.96451 13.7551 10.0854 13.5757C10.2063 13.3963 10.378 13.2565 10.579 13.174C10.78 13.0914 11.0012 13.0698 11.2146 13.1119C11.428 13.154 11.624 13.2579 11.7778 13.4104C11.9317 13.563 12.0364 13.7574 12.0789 13.969C12.1213 14.1806 12.0995 14.4 12.0163 14.5993C11.933 14.7986 11.792 14.969 11.6111 15.0889Z" fill="#0E0000"/>
<path d="M6.11113 15.0889C5.93023 15.2087 5.71756 15.2727 5.5 15.2727C5.20826 15.2727 4.92847 15.1578 4.72218 14.9532C4.51589 14.7486 4.4 14.4711 4.4 14.1818C4.4 13.9661 4.46451 13.7551 4.58538 13.5757C4.70625 13.3963 4.87805 13.2565 5.07905 13.174C5.28005 13.0914 5.50122 13.0698 5.7146 13.1119C5.92798 13.154 6.12398 13.2579 6.27782 13.4104C6.43165 13.563 6.53642 13.7574 6.57886 13.969C6.62131 14.1806 6.59952 14.4 6.51627 14.5993C6.43301 14.7986 6.29202 14.969 6.11113 15.0889Z" fill="#0E0000"/>
<path d="M6.11113 19.4525C5.93023 19.5724 5.71756 19.6364 5.5 19.6364C5.20826 19.6364 4.92847 19.5214 4.72218 19.3168C4.51589 19.1123 4.4 18.8348 4.4 18.5455C4.4 18.3297 4.46451 18.1188 4.58538 17.9394C4.70625 17.76 4.87805 17.6202 5.07905 17.5376C5.28005 17.455 5.50122 17.4334 5.7146 17.4755C5.92798 17.5176 6.12398 17.6215 6.27782 17.7741C6.43165 17.9266 6.53642 18.121 6.57886 18.3326C6.62131 18.5442 6.59952 18.7636 6.51627 18.9629C6.43301 19.1623 6.29202 19.3326 6.11113 19.4525Z" fill="#0E0000"/>
<path d="M20.853 5.58689L18.653 5.58689V3.40508C18.653 3.11575 18.5371 2.83827 18.3308 2.63369C18.1245 2.4291 17.8447 2.31417 17.553 2.31417C17.2612 2.31417 16.9815 2.4291 16.7752 2.63369C16.5689 2.83827 16.453 3.11575 16.453 3.40508V5.58689H14.253C13.9612 5.58689 13.6815 5.70183 13.4752 5.90641C13.2689 6.111 13.153 6.38848 13.153 6.6778C13.153 6.96713 13.2689 7.24461 13.4752 7.44919C13.6815 7.65378 13.9612 7.76871 14.253 7.76871H16.453L16.453 9.95053C16.453 10.2399 16.5689 10.5173 16.7752 10.7219C16.9815 10.9265 17.2612 11.0414 17.553 11.0414C17.8447 11.0414 18.1245 10.9265 18.3308 10.7219C18.5371 10.5173 18.653 10.2399 18.653 9.95053V7.76871H20.853C21.1447 7.76871 21.4245 7.65378 21.6308 7.44919C21.8371 7.24461 21.953 6.96713 21.953 6.6778C21.953 6.38848 21.8371 6.111 21.6308 5.90642C21.4245 5.70183 21.1447 5.58689 20.853 5.58689Z" fill="#0E0000"/>
</svg>
